<?xml version="1.0" standalone="no"?>
<!DOCTYPE svg PUBLIC "-//W3C//DTD SVG 20010904//EN"
 "http://www.w3.org/TR/2001/REC-SVG-20010904/DTD/svg10.dtd">
<svg version="1.0" xmlns="http://www.w3.org/2000/svg"
 width="512.000000pt" height="512.000000pt" viewBox="0 0 512.000000 512.000000"
 preserveAspectRatio="xMidYMid meet">
<metadata>
Created by potrace 1.11, written by Peter Selinger 2001-2013
</metadata>
<g transform="translate(0.000000,512.000000) scale(0.100000,-0.100000)"
fill="#000000" stroke="none">
<path d="M1001 3704 c-101 -17 -239 -62 -333 -109 -328 -165 -551 -489 -584
-850 -33 -356 69 -658 301 -890 142 -143 267 -220 451 -278 227 -72 496 -78
721 -16 483 133 802 541 806 1032 2 261 -50 447 -179 642 -161 244 -421 410
-729 465 -120 22 -331 24 -454 4z m356 -268 c247 -30 495 -205 604 -427 74
-150 92 -231 92 -399 -2 -364 -222 -667 -563 -774 -280 -89 -595 -30 -813 150
-145 119 -248 299 -278 483 -10 68 -13 238 -4 281 3 14 8 39 10 55 21 119 102
276 198 382 83 93 251 192 386 228 110 29 240 37 368 21z"/>
<path d="M2680 2620 l0 -1077 149 0 149 0 -2 768 c0 423 2 769 5 769 5 0 91
-140 254 -414 11 -18 65 -108 120 -200 55 -92 111 -186 125 -209 14 -24 80
-135 148 -248 l123 -205 72 0 72 1 109 180 c59 99 116 194 125 210 9 17 39 67
66 113 28 46 57 95 66 110 221 373 305 512 320 534 11 14 19 29 19 32 0 3 16
31 35 63 l35 58 1 -210 c0 -115 0 -467 1 -781 l0 -571 150 0 149 0 -2 1077 -1
1077 -128 0 -127 0 -50 -86 c-53 -91 -165 -283 -483 -826 -107 -181 -228 -390
-271 -463 -56 -97 -79 -129 -87 -120 -5 7 -60 99 -122 203 -62 105 -121 204
-131 220 -10 17 -24 41 -32 55 -12 22 -203 342 -513 865 l-90 150 -127 1 -127
1 0 -1077z"/>
</g>
</svg>
