<?xml version="1.0" standalone="no"?>
<!DOCTYPE svg PUBLIC "-//W3C//DTD SVG 20010904//EN"
 "http://www.w3.org/TR/2001/REC-SVG-20010904/DTD/svg10.dtd">
<svg version="1.0" xmlns="http://www.w3.org/2000/svg"
 width="512.000000pt" height="512.000000pt" viewBox="0 0 512.000000 512.000000"
 preserveAspectRatio="xMidYMid meet">
<metadata>
Created by potrace 1.11, written by Peter Selinger 2001-2013
</metadata>
<g transform="translate(0.000000,512.000000) scale(0.100000,-0.100000)"
fill="#000000" stroke="none">
<path d="M1118 3606 c-298 -53 -565 -230 -716 -475 -177 -288 -198 -677 -53
-987 53 -113 112 -196 200 -285 118 -118 254 -200 416 -252 141 -45 190 -52
380 -51 160 1 191 4 276 26 324 87 565 282 694 561 130 282 122 651 -20 926
-99 190 -250 337 -450 437 -165 82 -269 106 -480 110 -113 2 -196 -1 -247 -10z
m402 -262 c115 -24 261 -98 348 -179 323 -299 335 -822 27 -1130 -135 -134
-304 -208 -505 -221 -246 -16 -459 63 -625 230 -98 98 -164 217 -196 352 -28
119 -23 322 11 429 48 151 131 274 247 366 194 154 429 206 693 153z"/>
<path d="M2708 2655 c-1 -520 -3 -975 -3 -1012 l0 -68 140 0 140 0 -3 730 c-2
658 -1 728 13 711 8 -11 173 -285 367 -608 l352 -589 70 3 70 3 363 609 363
610 0 -737 0 -737 140 0 140 0 0 1015 0 1016 -122 -3 -122 -3 -228 -390 c-125
-214 -310 -531 -410 -702 -101 -172 -186 -313 -190 -313 -4 0 -688 1142 -824
1378 l-18 32 -118 0 -118 0 -2 -945z"/>
</g>
</svg>
